<svg width="419" height="419" viewBox="0 0 419 419" fill="none" xmlns="http://www.w3.org/2000/svg">
<path d="M92.5292 326.471C96.0208 329.963 99.5125 331.708 104.75 331.708C109.987 331.708 113.479 329.963 116.971 326.471L209.5 233.942L302.029 326.471C305.521 329.963 310.758 331.708 314.25 331.708C317.742 331.708 322.979 329.963 326.471 326.471C333.454 319.488 333.454 309.012 326.471 302.029L233.942 209.5L326.471 116.971C333.454 109.987 333.454 99.5125 326.471 92.5292C319.488 85.5458 309.012 85.5458 302.029 92.5292L209.5 185.058L116.971 92.5292C109.987 85.5458 99.5125 85.5458 92.5292 92.5292C85.5458 99.5125 85.5458 109.987 92.5292 116.971L185.058 209.5L92.5292 302.029C85.5458 309.012 85.5458 319.488 92.5292 326.471Z" fill="#FF0000"/>
</svg>
